<svg width="110" height="34" viewBox="0 0 110 34" fill="none" xmlns="http://www.w3.org/2000/svg">
<path fill-rule="evenodd" clip-rule="evenodd" d="M28.8126 18.0245L28.7672 29.2837V33.5406H24.0863C17.5873 33.5406 17.5873 30.5198 17.5873 28.2313V18.1163C17.5873 15.0498 16.4059 13.4474 13.9973 13.4474C13.1791 13.4474 12.2247 13.5849 11.2249 14.5918V33.5404H-0.000366211V5.02569L11.2249 0.0823288V13.9049C13.2245 11.9826 16.7241 10.3348 20.9049 10.3348C26.0402 10.3348 28.8127 12.8065 28.8127 18.0241" fill="#FF0000"/>
<path fill-rule="evenodd" clip-rule="evenodd" d="M61.7472 18.1418L61.7014 29.3554V33.5952H56.9845C50.436 33.5952 50.436 30.5867 50.436 28.3074V18.2333C50.436 15.1792 49.2453 13.5834 46.8182 13.5834C45.9938 13.5834 45.032 13.7203 44.0249 14.7232V33.5952H32.7137V15.0422L44.0249 10.119V14.0394C46.0398 12.1247 49.5658 10.4837 53.7789 10.4837C58.9538 10.4837 61.7471 12.9454 61.7471 18.1418" fill="#FF0000"/>
<path fill-rule="evenodd" clip-rule="evenodd" d="M82.6717 18.6676C86.7367 19.987 89.5543 21.6249 89.5543 26.0837C89.5543 32.0438 84.1033 34 76.9435 34C73.0634 34 68.7209 33.4539 64.9335 32.4079L64.6101 25.1282H64.887C68.5364 28.6313 73.2944 33.6817 77.2209 33.6817C79.207 33.6817 80.4081 32.635 80.4081 30.8149C80.4081 28.9497 79.2996 28.2673 77.6366 27.767C76.6203 27.4482 73.4791 26.493 71.4929 25.8106C68.5365 24.8096 64.7024 23.3993 64.7024 18.4403C64.7024 12.6619 69.9681 10.5239 77.2207 10.5239C80.5928 10.5239 85.0736 11.0243 88.2146 11.7976L88.5379 19.0319H88.261C84.9347 15.5739 80.5929 10.9334 77.0823 10.9334C74.911 10.9334 73.8487 12.1162 73.8487 13.7541C73.8487 15.6196 75.0957 16.2566 76.4818 16.7114C77.3593 16.9844 76.5741 16.7114 82.6716 18.6678" fill="#FF0000"/>
<path fill-rule="evenodd" clip-rule="evenodd" d="M110 29.3112V29.5389C109.086 31.7693 105.432 33.9998 100.91 33.9998C95.3373 33.9998 92.8253 31.724 92.8253 26.9444V5.32123L104.107 0.404588V10.875H109.406V13.1502H104.107V26.6708C104.107 29.2202 105.843 29.9488 107.305 29.9488C108.356 29.9488 109.178 29.7665 110 29.3111" fill="#FF0000"/>
</svg>
